<svg xmlns="http://www.w3.org/2000/svg" xmlns:xlink="http://www.w3.org/1999/xlink" width="510px" height="172px">
	<path fill-rule="evenodd" fill="white" d="M509.084,96.471 L451.599,96.471 C452.795,102.821 455.700,107.699 460.312,111.112 C464.921,114.525 470.520,116.232 477.108,116.232 C481.537,116.232 485.461,115.603 488.875,114.346 C492.288,113.088 495.432,111.202 498.306,108.687 L506.569,121.262 C501.899,124.975 497.048,127.760 492.018,129.615 C486.988,131.471 481.419,132.400 475.312,132.400 C466.807,132.400 459.293,130.603 452.767,127.010 C446.238,123.418 441.149,118.388 437.497,111.921 C433.842,105.453 432.018,98.088 432.018,89.825 C432.018,82.041 433.783,74.945 437.317,68.537 C440.848,62.132 445.761,57.071 452.048,53.357 C458.335,49.647 465.431,47.788 473.336,47.788 C484.591,47.788 493.484,51.322 500.012,58.387 C506.539,65.455 509.803,75.035 509.803,87.130 C509.803,89.047 509.562,92.160 509.084,96.471 ZM485.911,68.806 C482.556,65.455 478.245,63.777 472.976,63.777 C467.587,63.777 462.975,65.483 459.144,68.896 C455.310,72.310 452.795,77.070 451.599,83.178 L491.300,83.178 C491.058,76.952 489.262,72.161 485.911,68.806 ZM408.666,0.722 L428.247,0.722 L428.427,130.064 L408.666,130.064 L408.666,0.722 ZM386.212,126.651 C380.343,130.244 373.637,132.040 366.092,132.040 C360.103,132.040 354.623,130.842 349.655,128.448 C344.684,126.053 340.522,122.699 337.170,118.388 L333.937,130.064 L320.284,130.064 L320.284,0.722 L339.865,0.722 L339.865,36.471 C339.865,44.375 339.685,52.100 339.326,59.645 C342.677,55.934 346.660,53.060 351.272,51.022 C355.881,48.987 360.821,47.968 366.092,47.968 C373.517,47.968 380.163,49.736 386.033,53.267 C391.899,56.801 396.480,61.741 399.775,68.088 C403.068,74.437 404.715,81.561 404.715,89.465 C404.715,97.850 403.099,105.246 399.865,111.651 C396.632,118.059 392.079,123.058 386.212,126.651 ZM378.667,72.040 C374.474,67.490 369.026,65.214 362.320,65.214 C355.373,65.214 349.773,67.490 345.523,72.040 C341.271,76.593 339.146,82.580 339.146,90.004 C339.146,97.549 341.240,103.598 345.434,108.148 C349.624,112.701 355.252,114.974 362.320,114.974 C369.146,114.974 374.625,112.670 378.757,108.058 C382.889,103.449 384.955,97.431 384.955,90.004 C384.955,82.580 382.858,76.593 378.667,72.040 ZM296.033,118.028 C293.038,122.340 289.117,125.694 284.267,128.088 C279.416,130.483 273.817,131.681 267.470,131.681 C259.925,131.681 253.845,129.677 249.237,125.663 C244.625,121.652 242.320,116.173 242.320,109.226 C242.320,100.244 245.972,93.269 253.278,88.298 C260.582,83.329 270.462,80.842 282.919,80.842 C285.794,80.842 289.145,80.963 292.979,81.202 L292.979,77.609 C292.979,73.539 291.542,70.454 288.668,68.357 C285.794,66.263 281.780,65.214 276.632,65.214 C268.966,65.214 260.644,67.369 251.662,71.681 L246.093,56.770 C258.188,51.263 269.384,48.507 279.686,48.507 C290.105,48.507 298.217,51.084 304.027,56.232 C309.835,61.382 312.740,68.748 312.740,78.328 L312.740,130.064 L299.626,130.064 L296.033,118.028 ZM284.177,93.417 C277.109,93.417 271.602,94.616 267.650,97.010 C263.698,99.407 261.722,102.821 261.722,107.250 C261.722,110.366 262.738,112.760 264.776,114.436 C266.811,116.114 269.626,116.951 273.219,116.951 C279.085,116.951 283.907,114.916 287.680,110.843 C291.452,106.773 293.398,101.142 293.518,93.956 C290.285,93.597 287.169,93.417 284.177,93.417 ZM225.793,130.064 L204.595,130.064 L204.595,27.489 L169.924,27.489 L169.924,7.908 L260.284,7.908 L260.284,27.489 L225.793,27.489 L225.793,130.064 ZM185.595,50.663 L193.679,50.663 L193.679,135.274 C193.679,143.058 191.911,149.673 188.380,155.124 C184.846,160.573 180.116,164.646 174.188,167.340 C168.260,170.035 161.703,171.382 154.517,171.382 C140.264,171.382 128.290,166.650 118.589,157.190 L125.415,149.466 C133.437,157.249 142.959,161.142 153.978,161.142 C162.481,161.142 169.397,158.925 174.727,154.496 C180.055,150.064 182.721,143.597 182.721,135.094 C182.721,126.952 182.780,120.964 182.901,117.130 C179.426,121.801 174.966,125.366 169.517,127.819 C164.066,130.272 158.349,131.502 152.362,131.502 C144.457,131.502 137.479,129.677 131.433,126.022 C125.384,122.371 120.714,117.400 117.421,111.112 C114.126,104.825 112.481,97.908 112.481,90.364 C112.481,82.701 114.098,75.723 117.331,69.435 C120.565,63.148 125.146,58.180 131.074,54.525 C137.002,50.873 143.918,49.046 151.823,49.046 C158.408,49.046 164.398,50.303 169.787,52.818 C175.176,55.333 179.605,58.988 183.080,63.777 L185.595,50.663 ZM153.080,59.285 C143.977,59.285 136.792,62.221 131.523,68.088 C126.252,73.957 123.619,81.322 123.619,90.184 C123.619,99.166 126.283,106.593 131.613,112.459 C136.940,118.329 144.036,121.262 152.901,121.262 C162.481,121.262 169.905,118.329 175.176,112.459 C180.445,106.593 183.080,99.228 183.080,90.364 C183.080,81.502 180.476,74.106 175.266,68.178 C170.056,62.250 162.660,59.285 153.080,59.285 ZM117.512,130.064 L105.116,130.064 L92.182,102.040 L25.355,102.040 L12.421,130.064 L0.026,130.064 L0.026,129.705 L56.793,7.010 L60.745,7.010 L117.512,129.705 L117.512,130.064 ZM65.595,44.196 C62.480,37.010 60.206,31.562 58.769,27.848 C57.332,31.562 55.055,37.010 51.942,44.196 L30.385,91.262 L87.332,91.262 L65.595,44.196 Z"/>
</svg>